<?xml version="1.0" encoding="UTF-8"?>
<svg id="Layer_2" data-name="Layer 2" xmlns="http://www.w3.org/2000/svg" viewBox="0 0 65.46 65.67">
  <defs>
    <style>
      .cls-1 {
        fill: #a2c23c;
      }
    </style>
  </defs>
  <g id="Layer_1-2" data-name="Layer 1">
    <g>
      <path class="cls-1" d="M0,36.73c0-2.39,0-4.78,0-7.17,.07-.35,.17-.69,.22-1.05C1.3,20.5,4.79,13.76,10.79,8.3,20.84-.85,37.03-2.75,48.79,4.18c12.11,7.13,17.65,17.91,16.52,31.92-1.19,14.77-12.78,26.97-27.45,29.14-1.37,.2-2.77,.29-4.15,.43h-1.2c-.51-.06-1.02-.17-1.53-.19-14.76-.45-27.71-11.53-30.47-26.06C.35,38.53,.17,37.63,0,36.73Zm59.09-3.76c.01-14.84-11.56-26.56-26.24-26.59-14.77-.02-26.61,11.65-26.62,26.27,0,14.2,10.81,26.68,26.36,26.65,16.19-.04,26.73-12.95,26.5-26.32Z"/>
      <path class="cls-1" d="M27.6,47.54c-.93,0-1.73-.35-2.37-.98-3.22-3.2-6.47-6.37-9.62-9.64-1.87-1.94-1.05-4.84,1.42-5.35,1.35-.28,2.41,.37,3.32,1.26,1.85,1.81,3.68,3.64,5.5,5.48,1.33,1.34,1.73,1.33,2.96-.08,5.36-6.16,10.71-12.31,16.08-18.46,.85-.98,1.78-1.87,3.26-1.6,2.59,.48,3.51,3.2,1.75,5.33-1.57,1.91-3.22,3.75-4.83,5.61-4.56,5.26-9.13,10.53-13.7,15.78-.55,.63-1.13,1.23-1.72,1.82-.56,.56-1.25,.84-2.05,.83Z"/>
    </g>
  </g>
</svg>