<?xml version="1.0" encoding="UTF-8"?>
<svg id="Layer_2" data-name="Layer 2" xmlns="http://www.w3.org/2000/svg" xmlns:xlink="http://www.w3.org/1999/xlink" viewBox="0 0 928.23 153.12">
  <defs>
    <style>
      .cls-1 {
        fill: #fff;
      }

      .cls-2 {
        filter: url(#outer-glow-1);
      }
    </style>
    <filter id="outer-glow-1" filterUnits="userSpaceOnUse">
      <feOffset dx="0" dy="0"/>
      <feGaussianBlur result="blur" stdDeviation="9.41"/>
      <feFlood flood-color="#fff5e6" flood-opacity=".75"/>
      <feComposite in2="blur" operator="in"/>
      <feComposite in="SourceGraphic"/>
    </filter>
  </defs>
  <g id="Layer_1-2" data-name="Layer 1">
    <g class="cls-2">
      <path class="cls-1" d="M38.8,3.64c3.73,1.68,6.61,4.08,8.64,7.2,2.03,3.12,3.04,6.79,3.04,11s-1.01,7.87-3.04,10.96c-2.03,3.09-4.91,5.48-8.64,7.16-3.73,1.68-8.13,2.52-13.2,2.52H15.84v14.64H0V1.12H25.6c5.07,0,9.47,.84,13.2,2.52Zm-6.8,24.24c1.65-1.41,2.48-3.43,2.48-6.04s-.83-4.64-2.48-6.08c-1.65-1.44-4.11-2.16-7.36-2.16H15.84V30h8.8c3.25,0,5.71-.71,7.36-2.12Z"/>
      <path class="cls-1" d="M58.16,1.12h15.84V44.56h26.72v12.56H58.16V1.12Z"/>
      <path class="cls-1" d="M151.92,44.88v12.24h-44.96V1.12h43.92V13.36h-28.24v9.44h24.88v11.84h-24.88v10.24h29.28Z"/>
      <path class="cls-1" d="M198.24,46.24h-23.68l-4.4,10.88h-16.16L178.72,1.12h15.6l24.8,56h-16.48l-4.4-10.88Zm-4.64-11.68l-7.2-17.92-7.2,17.92h14.4Z"/>
      <path class="cls-1" d="M230.08,56.56c-4.27-1.12-7.73-2.61-10.4-4.48l5.2-11.68c2.51,1.65,5.41,2.99,8.72,4,3.31,1.01,6.56,1.52,9.76,1.52,6.08,0,9.12-1.52,9.12-4.56,0-1.6-.87-2.79-2.6-3.56-1.73-.77-4.52-1.59-8.36-2.44-4.21-.91-7.73-1.88-10.56-2.92-2.83-1.04-5.25-2.71-7.28-5-2.03-2.29-3.04-5.39-3.04-9.28,0-3.41,.93-6.49,2.8-9.24,1.87-2.75,4.65-4.92,8.36-6.52,3.71-1.6,8.25-2.4,13.64-2.4,3.68,0,7.31,.41,10.88,1.24,3.57,.83,6.72,2.04,9.44,3.64l-4.88,11.76c-5.33-2.88-10.51-4.32-15.52-4.32-3.15,0-5.44,.47-6.88,1.4-1.44,.93-2.16,2.15-2.16,3.64s.85,2.61,2.56,3.36c1.71,.75,4.45,1.52,8.24,2.32,4.27,.91,7.8,1.88,10.6,2.92s5.23,2.69,7.28,4.96c2.05,2.27,3.08,5.35,3.08,9.24,0,3.36-.93,6.4-2.8,9.12-1.87,2.72-4.67,4.89-8.4,6.52-3.73,1.63-8.27,2.44-13.6,2.44-4.53,0-8.93-.56-13.2-1.68Z"/>
      <path class="cls-1" d="M320.32,44.88v12.24h-44.96V1.12h43.92V13.36h-28.24v9.44h24.88v11.84h-24.88v10.24h29.28Z"/>
      <path class="cls-1" d="M358.88,56.56c-4.27-1.12-7.73-2.61-10.4-4.48l5.2-11.68c2.51,1.65,5.41,2.99,8.72,4,3.31,1.01,6.56,1.52,9.76,1.52,6.08,0,9.12-1.52,9.12-4.56,0-1.6-.87-2.79-2.6-3.56-1.73-.77-4.52-1.59-8.36-2.44-4.21-.91-7.73-1.88-10.56-2.92-2.83-1.04-5.25-2.71-7.28-5-2.03-2.29-3.04-5.39-3.04-9.28,0-3.41,.93-6.49,2.8-9.24,1.87-2.75,4.65-4.92,8.36-6.52,3.71-1.6,8.25-2.4,13.64-2.4,3.68,0,7.31,.41,10.88,1.24,3.57,.83,6.72,2.04,9.44,3.64l-4.88,11.76c-5.33-2.88-10.51-4.32-15.52-4.32-3.15,0-5.44,.47-6.88,1.4-1.44,.93-2.16,2.15-2.16,3.64s.85,2.61,2.56,3.36c1.71,.75,4.45,1.52,8.24,2.32,4.27,.91,7.8,1.88,10.6,2.92s5.23,2.69,7.28,4.96c2.05,2.27,3.08,5.35,3.08,9.24,0,3.36-.93,6.4-2.8,9.12-1.87,2.72-4.67,4.89-8.4,6.52-3.73,1.63-8.27,2.44-13.6,2.44-4.53,0-8.93-.56-13.2-1.68Z"/>
      <path class="cls-1" d="M449.12,44.88v12.24h-44.96V1.12h43.92V13.36h-28.24v9.44h24.88v11.84h-24.88v10.24h29.28Z"/>
      <path class="cls-1" d="M457.92,1.12h15.84V44.56h26.72v12.56h-42.56V1.12Z"/>
      <path class="cls-1" d="M551.67,44.88v12.24h-44.96V1.12h43.92V13.36h-28.24v9.44h24.88v11.84h-24.88v10.24h29.28Z"/>
      <path class="cls-1" d="M572.51,54.52c-4.67-2.48-8.33-5.93-11-10.36-2.67-4.43-4-9.44-4-15.04s1.33-10.61,4-15.04c2.67-4.43,6.33-7.88,11-10.36,4.67-2.48,9.93-3.72,15.8-3.72,5.12,0,9.73,.91,13.84,2.72,4.11,1.81,7.52,4.43,10.24,7.84l-10.08,9.12c-3.63-4.37-8.03-6.56-13.2-6.56-3.04,0-5.75,.67-8.12,2-2.37,1.33-4.21,3.21-5.52,5.64-1.31,2.43-1.96,5.21-1.96,8.36s.65,5.93,1.96,8.36c1.31,2.43,3.15,4.31,5.52,5.64,2.37,1.33,5.08,2,8.12,2,5.17,0,9.57-2.19,13.2-6.56l10.08,9.12c-2.72,3.41-6.13,6.03-10.24,7.84-4.11,1.81-8.72,2.72-13.84,2.72-5.87,0-11.13-1.24-15.8-3.72Z"/>
      <path class="cls-1" d="M630.87,13.68h-17.2V1.12h50.16V13.68h-17.12V57.12h-15.84V13.68Z"/>
      <path class="cls-1" d="M723.03,37.04v20.08h-15.84v-20.32L685.83,1.12h16.72l13.28,22.24,13.28-22.24h15.36l-21.44,35.92Z"/>
      <path class="cls-1" d="M758.35,54.48c-4.72-2.51-8.43-5.97-11.12-10.4-2.69-4.43-4.04-9.41-4.04-14.96s1.35-10.53,4.04-14.96c2.69-4.43,6.4-7.89,11.12-10.4,4.72-2.51,10.04-3.76,15.96-3.76s11.24,1.25,15.96,3.76c4.72,2.51,8.43,5.97,11.12,10.4,2.69,4.43,4.04,9.41,4.04,14.96s-1.35,10.53-4.04,14.96c-2.69,4.43-6.4,7.89-11.12,10.4s-10.04,3.76-15.96,3.76-11.24-1.25-15.96-3.76Zm23.64-11.36c2.29-1.33,4.11-3.21,5.44-5.64,1.33-2.43,2-5.21,2-8.36s-.67-5.93-2-8.36c-1.33-2.43-3.15-4.31-5.44-5.64-2.29-1.33-4.85-2-7.68-2s-5.39,.67-7.68,2c-2.29,1.33-4.11,3.21-5.44,5.64-1.33,2.43-2,5.21-2,8.36s.67,5.93,2,8.36,3.15,4.31,5.44,5.64c2.29,1.33,4.85,2,7.68,2s5.39-.67,7.68-2Z"/>
      <path class="cls-1" d="M820.19,51.44c-4.61-4.53-6.92-10.96-6.92-19.28V1.12h15.84V31.68c0,8.96,3.55,13.44,10.64,13.44s10.56-4.48,10.56-13.44V1.12h15.6v31.04c0,8.32-2.31,14.75-6.92,19.28-4.61,4.53-11.08,6.8-19.4,6.8s-14.79-2.27-19.4-6.8Z"/>
      <path class="cls-1" d="M901.11,42.24h-8.64v14.88h-15.84V1.12h25.6c5.07,0,9.47,.84,13.2,2.52,3.73,1.68,6.61,4.08,8.64,7.2,2.03,3.12,3.04,6.79,3.04,11s-.95,7.59-2.84,10.6c-1.89,3.01-4.6,5.37-8.12,7.08l12.08,17.6h-16.96l-10.16-14.88Zm7.52-26.48c-1.65-1.44-4.11-2.16-7.36-2.16h-8.8V30h8.8c3.25,0,5.71-.71,7.36-2.12,1.65-1.41,2.48-3.43,2.48-6.04s-.83-4.64-2.48-6.08Z"/>
      <path class="cls-1" d="M264.92,109.68h-17.2v-12.56h50.16v12.56h-17.12v43.44h-15.84v-43.44Z"/>
      <path class="cls-1" d="M348.76,140.88v12.24h-44.96v-56h43.92v12.24h-28.24v9.44h24.88v11.84h-24.88v10.24h29.28Z"/>
      <path class="cls-1" d="M408.12,153.12l-.16-29.68-14.4,24.16h-7.04l-14.32-23.36v28.88h-14.64v-56h13.04l19.68,32.32,19.2-32.32h13.04l.16,56h-14.56Z"/>
      <path class="cls-1" d="M472.68,99.64c3.73,1.68,6.61,4.08,8.64,7.2,2.03,3.12,3.04,6.79,3.04,11s-1.01,7.87-3.04,10.96c-2.03,3.09-4.91,5.48-8.64,7.16-3.73,1.68-8.13,2.52-13.2,2.52h-9.76v14.64h-15.84v-56h25.6c5.07,0,9.47,.84,13.2,2.52Zm-6.8,24.24c1.65-1.41,2.48-3.43,2.48-6.04s-.83-4.64-2.48-6.08c-1.65-1.44-4.11-2.16-7.36-2.16h-8.8v16.4h8.8c3.25,0,5.71-.71,7.36-2.12Z"/>
      <path class="cls-1" d="M492.04,97.12h15.84v43.44h26.72v12.56h-42.56v-56Z"/>
      <path class="cls-1" d="M578.99,142.24h-23.68l-4.4,10.88h-16.16l24.72-56h15.6l24.8,56h-16.48l-4.4-10.88Zm-4.64-11.68l-7.2-17.92-7.2,17.92h14.4Z"/>
      <path class="cls-1" d="M613.47,109.68h-17.2v-12.56h50.16v12.56h-17.12v43.44h-15.84v-43.44Z"/>
      <path class="cls-1" d="M697.31,140.88v12.24h-44.96v-56h43.92v12.24h-28.24v9.44h24.88v11.84h-24.88v10.24h29.28Z"/>
    </g>
  </g>
</svg>