<?xml version="1.0" encoding="UTF-8"?>
<svg id="Layer_2" data-name="Layer 2" xmlns="http://www.w3.org/2000/svg" xmlns:xlink="http://www.w3.org/1999/xlink" viewBox="0 0 444.7 132.7">
  <defs>
    <style>
      .cls-1, .cls-2 {
        fill: #fff;
      }

      .cls-3 {
        fill: none;
        filter: url(#drop-shadow-1);
        stroke: url(#linear-gradient);
        stroke-width: 5.94px;
      }

      .cls-2 {
        filter: url(#outer-glow-3);
      }

      .cls-4 {
        fill: #a90207;
      }

      .cls-5 {
        filter: url(#outer-glow-2);
      }
    </style>
    <linearGradient id="linear-gradient" x1="14.81" y1="61.44" x2="420.83" y2="61.44" gradientUnits="userSpaceOnUse">
      <stop offset="0" stop-color="#e36113"/>
      <stop offset=".2" stop-color="#ffb200"/>
      <stop offset=".4" stop-color="#e36113"/>
      <stop offset=".6" stop-color="#ffb200"/>
      <stop offset=".8" stop-color="#e36113"/>
      <stop offset="1" stop-color="#ffb200"/>
    </linearGradient>
    <filter id="drop-shadow-1" filterUnits="userSpaceOnUse">
      <feOffset dx="7.29" dy="7.29"/>
      <feGaussianBlur result="blur" stdDeviation="5.21"/>
      <feFlood flood-color="#000" flood-opacity=".75"/>
      <feComposite in2="blur" operator="in"/>
      <feComposite in="SourceGraphic"/>
    </filter>
    <filter id="outer-glow-2" filterUnits="userSpaceOnUse">
      <feOffset dx="0" dy="0"/>
      <feGaussianBlur result="blur-2" stdDeviation="9.99"/>
      <feFlood flood-color="#fff5e6" flood-opacity=".75"/>
      <feComposite in2="blur-2" operator="in"/>
      <feComposite in="SourceGraphic"/>
    </filter>
    <filter id="outer-glow-3" filterUnits="userSpaceOnUse">
      <feOffset dx="0" dy="0"/>
      <feGaussianBlur result="blur-3" stdDeviation="12.77"/>
      <feFlood flood-color="#fff5e6" flood-opacity=".75"/>
      <feComposite in2="blur-3" operator="in"/>
      <feComposite in="SourceGraphic"/>
    </filter>
  </defs>
  <g id="Layer_1-2" data-name="Layer 1">
    <g>
      <g>
        <g>
          <rect class="cls-4" x="17.79" y="17.53" width="400.07" height="87.83" rx="13.3" ry="13.3"/>
          <rect class="cls-3" x="17.79" y="17.53" width="400.07" height="87.83" rx="13.3" ry="13.3"/>
        </g>
        <g class="cls-5">
          <path class="cls-1" d="M107.49,48.82h14.7c3.4,0,6.42,.64,9.06,1.91,2.63,1.27,4.68,3.08,6.13,5.42,1.45,2.34,2.18,5.08,2.18,8.21s-.73,5.88-2.18,8.21c-1.45,2.34-3.49,4.14-6.13,5.42-2.64,1.27-5.65,1.91-9.06,1.91h-14.7v-31.08Zm14.34,24.06c2.66,0,4.8-.75,6.42-2.26,1.61-1.51,2.42-3.6,2.42-6.26s-.81-4.75-2.42-6.26c-1.61-1.51-3.75-2.26-6.42-2.26h-5.55v17.05h5.55Z"/>
          <path class="cls-1" d="M150.98,78.43c-2.62-1.39-4.68-3.32-6.17-5.77-1.5-2.46-2.24-5.22-2.24-8.3s.75-5.85,2.24-8.3c1.49-2.46,3.55-4.38,6.17-5.77,2.62-1.39,5.57-2.09,8.86-2.09s6.24,.7,8.86,2.09c2.62,1.39,4.68,3.32,6.17,5.77,1.49,2.46,2.24,5.22,2.24,8.3s-.75,5.85-2.24,8.3c-1.5,2.46-3.55,4.38-6.17,5.77-2.62,1.39-5.57,2.09-8.86,2.09s-6.24-.7-8.86-2.09Zm13.12-6.3c1.27-.74,2.28-1.78,3.02-3.13,.74-1.35,1.11-2.89,1.11-4.64s-.37-3.29-1.11-4.64c-.74-1.35-1.75-2.39-3.02-3.13-1.27-.74-2.69-1.11-4.26-1.11s-2.99,.37-4.26,1.11-2.28,1.78-3.02,3.13c-.74,1.35-1.11,2.89-1.11,4.64s.37,3.29,1.11,4.64c.74,1.35,1.75,2.39,3.02,3.13s2.69,1.11,4.26,1.11,2.99-.37,4.26-1.11Z"/>
          <path class="cls-1" d="M229.41,48.82l-10.08,31.08h-9.41l-5.95-18.91-6.22,18.91h-9.41l-10.08-31.08h9.06l6.26,19.85,6.57-19.85h8.08l6.26,20.02,6.53-20.02h8.39Z"/>
          <path class="cls-1" d="M262.14,48.82v31.08h-7.24l-13.72-16.56v16.56h-8.61v-31.08h7.24l13.72,16.56v-16.56h8.61Z"/>
          <path class="cls-1" d="M268.35,48.82h8.79v24.11h14.83v6.97h-23.62v-31.08Z"/>
          <path class="cls-1" d="M301.76,78.43c-2.62-1.39-4.68-3.32-6.17-5.77-1.5-2.46-2.24-5.22-2.24-8.3s.75-5.85,2.24-8.3c1.49-2.46,3.55-4.38,6.17-5.77,2.62-1.39,5.57-2.09,8.86-2.09s6.24,.7,8.86,2.09c2.62,1.39,4.68,3.32,6.17,5.77,1.49,2.46,2.24,5.22,2.24,8.3s-.75,5.85-2.24,8.3c-1.5,2.46-3.55,4.38-6.17,5.77-2.62,1.39-5.57,2.09-8.86,2.09s-6.24-.7-8.86-2.09Zm13.12-6.3c1.27-.74,2.28-1.78,3.02-3.13,.74-1.35,1.11-2.89,1.11-4.64s-.37-3.29-1.11-4.64c-.74-1.35-1.75-2.39-3.02-3.13-1.27-.74-2.69-1.11-4.26-1.11s-2.99,.37-4.26,1.11-2.28,1.78-3.02,3.13c-.74,1.35-1.11,2.89-1.11,4.64s.37,3.29,1.11,4.64c.74,1.35,1.75,2.39,3.02,3.13s2.69,1.11,4.26,1.11,2.99-.37,4.26-1.11Z"/>
          <path class="cls-1" d="M352.89,73.86h-13.14l-2.44,6.04h-8.97l13.72-31.08h8.66l13.76,31.08h-9.15l-2.44-6.04Zm-2.58-6.48l-4-9.95-4,9.95h7.99Z"/>
          <path class="cls-1" d="M366.96,48.82h14.7c3.4,0,6.42,.64,9.06,1.91,2.63,1.27,4.68,3.08,6.13,5.42,1.45,2.34,2.18,5.08,2.18,8.21s-.73,5.88-2.18,8.21c-1.45,2.34-3.49,4.14-6.13,5.42-2.64,1.27-5.65,1.91-9.06,1.91h-14.7v-31.08Zm14.34,24.06c2.66,0,4.8-.75,6.42-2.26,1.61-1.51,2.42-3.6,2.42-6.26s-.81-4.75-2.42-6.26c-1.61-1.51-3.75-2.26-6.42-2.26h-5.55v17.05h5.55Z"/>
        </g>
      </g>
      <path class="cls-2" d="M79.31,38.59h-10.79c-.72,0-1.31,.58-1.31,1.3,.37,.24-.85,25.83,.62,24.72,3.52-2.94,5.22-8.1,9.55-2.44,.87,.87,.87,2.29,0,3.17l-11.87,11.87c-1.1,1.1-2.89,1.1-4,0l-11.89-11.87c-1.91-1.85,.7-3.9,1.97-5.14,2.46-2.67,6.05,3.46,7.73,4.56,1.48,1.25,.23-24.8,.62-24.87,0-.72-.58-1.31-1.31-1.31-7.42-.09-20.19-1.63-20.2,9.27,0,0,0,32.98,0,32.98,0,5.1,4.17,9.27,9.27,9.27h31.6c5.1,0,9.27-4.17,9.27-9.27V47.86c0-5.1-4.17-9.27-9.27-9.27Z"/>
    </g>
  </g>
</svg>