<?xml version="1.0" encoding="UTF-8"?>
<svg id="Layer_2" data-name="Layer 2" xmlns="http://www.w3.org/2000/svg" xmlns:xlink="http://www.w3.org/1999/xlink" viewBox="0 0 439 127">
  <defs>
    <style>
      .cls-1 {
        fill: #fff;
      }

      .cls-2 {
        filter: url(#outer-glow-3);
      }

      .cls-3 {
        fill: none;
        filter: url(#drop-shadow-1);
        stroke: url(#linear-gradient);
        stroke-width: 5.94px;
      }

      .cls-4 {
        fill: #a90207;
      }

      .cls-5 {
        filter: url(#outer-glow-2);
      }
    </style>
    <linearGradient id="linear-gradient" x1="8.96" y1="55.57" x2="414.97" y2="55.57" gradientUnits="userSpaceOnUse">
      <stop offset="0" stop-color="#e36113"/>
      <stop offset=".2" stop-color="#ffb200"/>
      <stop offset=".4" stop-color="#e36113"/>
      <stop offset=".6" stop-color="#ffb200"/>
      <stop offset=".8" stop-color="#e36113"/>
      <stop offset="1" stop-color="#ffb200"/>
    </linearGradient>
    <filter id="drop-shadow-1" filterUnits="userSpaceOnUse">
      <feOffset dx="7.29" dy="7.29"/>
      <feGaussianBlur result="blur" stdDeviation="5.21"/>
      <feFlood flood-color="#000" flood-opacity=".75"/>
      <feComposite in2="blur" operator="in"/>
      <feComposite in="SourceGraphic"/>
    </filter>
    <filter id="outer-glow-2" filterUnits="userSpaceOnUse">
      <feOffset dx="0" dy="0"/>
      <feGaussianBlur result="blur-2" stdDeviation="9.99"/>
      <feFlood flood-color="#fff5e6" flood-opacity=".75"/>
      <feComposite in2="blur-2" operator="in"/>
      <feComposite in="SourceGraphic"/>
    </filter>
    <filter id="outer-glow-3" filterUnits="userSpaceOnUse">
      <feOffset dx="0" dy="0"/>
      <feGaussianBlur result="blur-3" stdDeviation="8.15"/>
      <feFlood flood-color="#fff5e6" flood-opacity=".75"/>
      <feComposite in2="blur-3" operator="in"/>
      <feComposite in="SourceGraphic"/>
    </filter>
  </defs>
  <g id="Layer_1-2" data-name="Layer 1">
    <g>
      <g>
        <rect class="cls-4" x="11.93" y="11.66" width="400.07" height="87.83" rx="13.3" ry="13.3"/>
        <rect class="cls-3" x="11.93" y="11.66" width="400.07" height="87.83" rx="13.3" ry="13.3"/>
      </g>
      <g>
        <g class="cls-5">
          <path class="cls-1" d="M244.21,74.41c-1.04,1.27-2.3,2.24-3.8,2.91s-3.13,1-4.91,1-3.27-.22-4.66-.67c-1.39-.44-2.79-1.18-4.2-2.2-1.41-1.02-2.98-2.45-4.73-4.28-2.69-.44-5.09-1.41-7.19-2.89-2.1-1.48-3.74-3.34-4.91-5.59-1.17-2.25-1.75-4.72-1.75-7.42,0-3.08,.75-5.85,2.24-8.3,1.49-2.46,3.55-4.38,6.17-5.77,2.62-1.39,5.57-2.09,8.86-2.09s6.24,.7,8.86,2.09c2.62,1.39,4.68,3.32,6.17,5.77,1.49,2.46,2.24,5.22,2.24,8.3,0,3.49-.96,6.58-2.86,9.26s-4.48,4.59-7.7,5.75c.59,.65,1.18,1.11,1.75,1.38s1.21,.4,1.89,.4c1.75,0,3.32-.73,4.71-2.18l3.82,4.53Zm-26.15-14.5c.74,1.35,1.75,2.39,3.02,3.13s2.69,1.11,4.26,1.11,2.99-.37,4.26-1.11c1.27-.74,2.28-1.78,3.02-3.13,.74-1.35,1.11-2.89,1.11-4.64s-.37-3.29-1.11-4.64c-.74-1.35-1.75-2.39-3.02-3.13-1.27-.74-2.69-1.11-4.26-1.11s-2.99,.37-4.26,1.11-2.28,1.78-3.02,3.13c-.74,1.35-1.11,2.89-1.11,4.64s.37,3.29,1.11,4.64Z"/>
          <path class="cls-1" d="M260.82,62.55h-4.79v8.26h-8.79v-31.08h14.21c2.81,0,5.25,.47,7.33,1.4,2.07,.93,3.67,2.26,4.8,4,1.12,1.73,1.69,3.77,1.69,6.11s-.53,4.21-1.58,5.88c-1.05,1.67-2.55,2.98-4.51,3.93l6.71,9.77h-9.41l-5.64-8.26Zm4.17-14.7c-.92-.8-2.28-1.2-4.08-1.2h-4.88v9.1h4.88c1.8,0,3.17-.39,4.08-1.18,.92-.78,1.38-1.9,1.38-3.35s-.46-2.58-1.38-3.38Z"/>
        </g>
        <g class="cls-2">
          <path class="cls-1" d="M168.86,52.78c1.46,0,2.92,.02,4.38-.01,.48-.01,.61,.16,.61,.6-.01,1.84,.13,1.55-1.44,1.55-.49,0-.65,.18-.64,.65,.03,1.4-.13,1.2,1.22,1.21,.84,0,.84,0,.84,.85,0,1.48,.1,1.28-1.28,1.29-.72,0-1.44,.02-2.16,0-.44-.01-.64,.11-.63,.59,.03,1.46-.11,1.26,1.24,1.27,.76,0,.77,.02,.77,.8,.01,1.42-.16,1.25,1.24,1.26,.82,0,.82,0,.82,.8,0,1.33-.11,1.19,1.19,1.2,.68,0,1.36-.02,2.05,0,.44,.02,.64-.12,.63-.59-.02-1.6,.12-1.33-1.28-1.32-.57,0-.74-.19-.73-.74,.02-2.24,.02-4.48,0-6.72,0-.53,.18-.71,.71-.7,1.27,.02,1.29,0,1.29-1.3,0-.53,.18-.72,.71-.7,1.64,.05,1.39-.22,1.44,1.43,.02,.57-.19,.74-.74,.74-1.42-.02-1.26-.16-1.27,1.29,0,.66,.02,1.33,0,1.99-.01,.43,.17,.57,.59,.58,1.5,.04,1.63,.21,1.41,1.73-.04,.3-.19,.4-.46,.4-.35,0-.7,.01-1.05,0-.35-.01-.51,.14-.48,.49,0,.02,0,.04,0,.06,0,1.68-.14,1.36,1.29,1.36,.52,0,.72,.15,.72,.69,0,1.41,.01,1.43-1.41,1.45-.46,0-.6,.18-.61,.62-.02,1.38-.03,1.38-1.41,1.38-.7,0-1.4-.01-2.1,0-.44,.01-.67-.14-.62-.61,0-.04,0-.08,0-.12-.03-1.4,.26-1.26-1.34-1.28-.42,0-.6,.14-.59,.58,.02,.92,.02,1.83,0,2.75,0,.41,.17,.54,.56,.55,.46,0,1.01-.19,1.36,.13,.35,.33,.12,.89,.15,1.35,.02,.33,.15,.51,.49,.5,.04,0,.08,0,.12,0,1.47,0,1.23,.06,1.25-1.2,0-.78,.02-.8,.77-.8,1.57,0,1.37-.13,1.36,1.32,0,.51,.1,.71,.67,.69,1.57-.04,1.32-.12,1.34,1.33,.01,.76-.01,1.52,0,2.28,.01,.44-.18,.59-.59,.58-1.84-.02-1.53,.18-1.55-1.49-.01-.66-.02-1.33,0-1.99,.01-.41-.12-.6-.56-.59-1.5,.03-1.28-.15-1.3,1.26,0,.76-.05,.8-.78,.81-1.31,.02-1.31,.03-1.22,1.36,.02,.33,.14,.51,.49,.49,.04,0,.08,0,.12,0q1.39,.04,1.39,1.47c0,.68-.01,1.36,0,2.05,.01,.43-.12,.64-.6,.63-1.83-.04-1.52,.21-1.55-1.49-.01-.66-.01-1.33,0-1.99,0-.37-.13-.53-.51-.53-.97,.01-1.95,0-2.92,0-.34,0-.51,.14-.49,.49,0,.02,0,.04,0,.06,0,1.55-.12,1.31,1.24,1.3,.58,0,.79,.16,.77,.76-.06,1.58,.21,1.35-1.42,1.4-.56,.02-.75-.17-.75-.73,.01-1.39-.02-1.39-1.39-1.28-.32,.03-.46,.15-.46,.47,0,.35,0,.7,0,1.05,0,.34-.16,.49-.5,.48-1.92-.03-1.6,.28-1.63-1.63,0-.34,.13-.51,.48-.51,.12,0,.23,0,.35,0,1.13,0,1.47-.47,1.15-1.57-.09-.32-.33-.29-.56-.29-.9,0-1.79-.02-2.69,0-.54,.02-.76-.14-.75-.72,.03-1.26,0-1.27-1.26-1.28-.74,0-.77-.05-.78-.81-.02-1.39,.23-1.24-1.36-1.26-.34,0-.52,.12-.5,.47,0,.14,.02,.28,0,.41-.05,.37,.21,.9-.18,1.08-.52,.24-1.25,.29-1.7,.01-.59-.37-.17-1.14-.23-1.73-.04-.39,.31-.38,.58-.38,.29,0,.59-.02,.88,0,.37,.03,.53-.08,.53-.48-.02-.95-.01-1.91,0-2.86,0-.37-.15-.55-.52-.52-.02,0-.04,0-.06,0-1.48,0-1.27-.1-1.28,1.22,0,.76-.02,.77-.8,.78-1.3,.01-1.2-.15-1.2,1.19,0,.81-.01,.82-.82,.81-1.53-.01-1.31,.17-1.33-1.34,0-.79,0-.79,.83-.8,1.31-.01,1.14,.14,1.18-1.21,.02-.53-.19-.66-.68-.66-1.54,.01-1.32,.15-1.33-1.34,0-.72-.02-1.44,0-2.16,.01-.41-.15-.55-.55-.55-.97,.02-1.95,0-2.92,.01-.43,0-.59-.16-.59-.58,.02-1.79-.19-1.55,1.49-1.57,.66,0,1.33-.01,1.99,0,.4,0,.57-.18,.58-.56,.02-1.59,.09-1.28-1.18-1.29-1.36-.02-2.73,.01-4.09-.01-.49,0-.65,.17-.64,.65,.02,.91,0,1.83,0,2.75,0,.44-.14,.62-.61,.62-1.5,.02-1.51,.03-1.53-1.44,0-.43-.14-.59-.57-.58-1.64,.03-1.34-.16-1.35,1.31,0,.53-.16,.72-.7,.71-1.58-.03-3.16-.03-4.74,0-.52,0-.73-.14-.72-.69,.03-1.6,.03-3.2,0-4.79,0-.51,.17-.73,.67-.67,.15,.02,.31,0,.47,0q.86,0,.86-.87t-.99-.99-1.01-.98c0-1.31-.09-1.16,1.16-1.17,.98,0,.98,0,.98,.94,0,1.19-.06,1.06,1.08,1.06,1.42,0,2.85-.01,4.27,0,.43,0,.57-.14,.58-.58,.02-1.39,.03-1.35,1.4-1.46,.6-.05,.79,.16,.73,.71,0,.02,0,.04,0,.06,.02,1.4-.23,1.25,1.36,1.26,.39,0,.52-.17,.5-.53-.01-.31,0-.62,0-.94-.01-.4,.17-.55,.56-.54,.97,.02,1.95-.01,2.92,.01,.43,.01,.59-.14,.58-.57-.02-.95,0-1.91-.01-2.86-.01-.45,.14-.66,.6-.63,.06,0,.12,0,.18,0,1.34-.01,1.38-.07,1.24-1.44-.03-.29-.16-.42-.44-.42-.06,0-.12,0-.18,0q-1.39-.04-1.39-1.41c0-.74,.02-1.48,0-2.22-.01-.4,.14-.58,.54-.57,.31,0,.62-.01,.94,0,.35,.01,.54-.11,.54-.5-.01-1.64,.13-1.35-1.26-1.34-.59,0-.79-.18-.76-.77,.04-.91,.03-1.83,0-2.75-.02-.49,.18-.65,.65-.64,1.71,.04,1.48-.23,1.5,1.48,0,.6,.04,1.21-.01,1.81-.05,.56,.12,.74,.7,.73,2.12-.03,4.25-.01,6.37-.01q.94,0,.95,.92c0,1.52-.02,3.04,.01,4.56,.01,.58-.2,.73-.75,.73-1.4,0-1.27-.3-1.27,1.39,0,.32,.14,.46,.46,.45,.31,0,.62,.02,.94,0,.45-.02,.63,.16,.62,.62-.02,.93,.01,1.87-.01,2.81-.01,.48,.14,.66,.64,.65,1.5-.02,3,0,4.5,0h0Zm-13.13-8.02c0,.45,.02,.9,0,1.34-.02,.44,.13,.67,.6,.62,.12-.01,.23,0,.35,0q1.05,0,1.05,1.05,0,.95,.91,.95,.95,0,.95-.97c0-.16,0-.31,0-.47-.02-.39,.14-.58,.55-.56,.31,.02,.62-.01,.93,0,.38,.02,.52-.16,.52-.53,0-.72,0-1.44,0-2.16-.01-1.38,.16-1.21-1.26-1.24-.47-.01-.6,.17-.6,.62,0,1.41-.03,1.38-1.39,1.41-.62,.01-.75-.23-.75-.79,0-1.36,.26-1.22-1.31-1.24-.41,0-.56,.17-.54,.56,.02,.47,0,.94,0,1.4Zm9.95,28.15c.51,0,1.01,0,1.52,0,.32,0,.43-.14,.46-.46,.11-1.44,.12-1.46-1.32-1.45-.56,0-.69-.22-.69-.72,0-1.27,0-1.29-1.31-1.28-.53,0-.71-.17-.7-.71,.02-1.39,0-1.38-1.41-1.31-.39,.02-.51,.18-.5,.54,.01,.64,0,1.28,0,1.93q0,1.37,1.34,1.4c.08,0,.16,0,.23,0,.31,0,.46,.14,.44,.47-.02,.39,0,.78,0,1.17,0,.29,.13,.42,.42,.42,.51,0,1.01,0,1.52,0Zm-2.96-20.04q-.99,0-.99,.97c0,.78-.04,1.56,.01,2.34,.04,.61-.2,.77-.77,.76-1.35-.01-1.23-.25-1.24,1.31,0,.41,.18,.55,.56,.54,.93-.01,1.87-.02,2.81,0,.45,.01,.55-.19,.56-.6,.01-1.37,.03-1.37,1.38-1.41,.19,0,.47,.06,.53-.14,.16-.49,.16-1.02,.02-1.49-.11-.38-.54-.22-.83-.22-1.36-.01-1.1-.03-1.12-1.16-.01-.91,0-.91-.93-.91Zm.93,11.04q0-.98-.99-.98c-.1,0-.19,0-.29,0-.76,0-.77-.02-.78-.79-.01-1.34,.16-1.19-1.23-1.22-.49-.01-.64,.17-.64,.64,0,1.35-.02,1.37-1.36,1.36-.49,0-.65,.16-.64,.64,.03,1.52-.11,1.26,1.28,1.28,.08,0,.16,0,.23,0,.35-.02,.5,.15,.49,.49,0,.35,0,.7,0,1.05,0,.32,.15,.45,.46,.45,1.65,0,1.39,.11,1.38-1.23,0-.56,.14-.86,.76-.77,.11,.02,.23,0,.35,0q.96,0,.96-.94Zm4.14,2.92h0c0,.27,0,.55,0,.82,.02,1.29-.18,1.19,1.25,1.2,.45,0,.63-.17,.62-.62-.02-.9,.02-1.79-.01-2.69-.02-.53,.17-.71,.71-.71,1.39,0,1.29,.27,1.3-1.31,0-.47-.18-.61-.63-.6-1.36,.02-2.73,0-4.09,0-1.22,0-1.12-.18-1.15,1.18-.01,.54,.14,.81,.72,.74,.25-.03,.51,0,.76,0,.38-.02,.53,.16,.53,.52,0,.49,0,.97,0,1.46Zm-8.2-11.97c0-.47-.02-.93,0-1.4,.02-.41-.11-.6-.56-.59-1.51,.03-1.28-.14-1.3,1.25,0,.76-.05,.81-.78,.81-1.34,0-1.24-.1-1.21,1.23,.01,.58-.19,.78-.77,.78-1.43,0-1.28-.3-1.29,1.36,0,.35,.14,.49,.49,.49,.97,0,1.94,0,2.92,0,.37,0,.51-.15,.52-.52,.02-.46-.2-1.02,.13-1.35,.33-.32,.89-.11,1.35-.13,.38,0,.52-.17,.51-.54-.01-.47,0-.93,0-1.4Zm4.15,5.98c0,.49,.01,.97,0,1.46-.02,.4,.15,.56,.55,.55,1.64-.02,1.37,.17,1.36-1.29,0-.57,.15-.79,.75-.79,1.36,.02,1.26,.26,1.26-1.35,0-.34-.13-.5-.48-.5-.99,0-1.99,0-2.98,0-.32,0-.46,.13-.46,.45,0,.49,0,.97,0,1.46Zm-18.16-2.06c.49,0,.97,0,1.46,0,.3,0,.49-.09,.49-.43,0-.99,0-1.99,0-2.98,0-.28-.12-.44-.41-.44-1.63-.03-1.52-.11-1.49,1.27,.02,.57-.2,.73-.75,.73-1.39,0-1.38,.01-1.28,1.39,.02,.32,.14,.46,.46,.46,.51,0,1.01,0,1.52,0Zm10.01,4.06h0c.23,0,.47,0,.7,0,1.47-.03,1.29,.29,1.31-1.41,0-.38-.15-.52-.52-.51-.7,.02-1.4,0-2.1,0-1.48,.03-1.3-.34-1.3,1.46,0,.32,.14,.46,.46,.45,.49,0,.97,0,1.46,0Zm2-11.96c0-.25,0-.51,0-.76-.02-1.37,.23-1.24-1.3-1.26-.45,0-.57,.2-.56,.61,.01,.68,0,1.36,0,2.04,.02,1.43-.21,1.25,1.34,1.27,.37,0,.54-.13,.52-.51-.02-.47,0-.93,0-1.4Zm2.14-.09h0c0,.25,0,.51,0,.76,.02,1.39-.22,1.21,1.31,1.24,.4,0,.56-.15,.55-.55-.02-.7,0-1.4,0-2.1-.02-1.39,.26-1.28-1.4-1.27-.32,0-.46,.15-.45,.46,0,.49,0,.97,0,1.46Zm-8.12,5.99h0c.23,0,.47,0,.7,0,1.44-.03,1.25,.24,1.28-1.33,0-.42-.18-.54-.56-.54-.7,.01-1.4,0-2.1,0-1.35,0-1.34,0-1.26,1.37,.02,.34,.14,.5,.49,.49,.49-.01,.97,0,1.46,0Zm20.04,14.17h0c0-.23,0-.47,0-.7-.02-1.4,.21-1.25-1.35-1.27-.39,0-.51,.16-.5,.53,.01,.7,0,1.4,0,2.1,.03,1.44-.29,1.28,1.37,1.29,.35,0,.49-.16,.49-.49,0-.49,0-.97,0-1.46Zm-1.99-14.08c0-.23,0-.47,0-.7,0-1.33,0-1.31-1.33-1.25-.41,.02-.54,.2-.53,.58,.01,.68,0,1.36,0,2.05,0,1.31,0,1.3,1.33,1.24,.41-.02,.55-.19,.54-.58-.01-.45,0-.9,0-1.34Zm-28.09,2.06s0,0,0,0c-.23,0-.47,0-.7,0-1.35,.02-1.25-.24-1.25,1.31,0,.4,.16,.56,.56,.56,.68-.01,1.36,0,2.05,0,1.34,0,1.37-.03,1.25-1.38,0-.02,0-.04,0-.06,0-.29-.15-.42-.44-.42-.49,0-.97,0-1.46,0Zm23.13,7.92q.97,0,.97-.93,0-.92-.92-.92-.99,0-.99,.97,0,.89,.95,.89Zm3.11,7.04q0,1.02,.93,1.02,.93,0,.93-.92c0-.94,0-.89-1.29-.95-.82-.03-.51,.52-.58,.85Zm-8.2-14q0-.96-.84-.96-1.02,0-1.02,.89,0,.97,.89,.97,.96,0,.96-.9Z"/>
          <path class="cls-1" d="M137.46,43.77c0-2.14,.01-4.28,0-6.43,0-.49,.14-.69,.66-.69,4.3,.02,8.61,.01,12.91,0,.48,0,.65,.16,.64,.64-.01,4.3-.01,8.61,0,12.91,0,.53-.21,.66-.69,.66-4.28-.01-8.57-.01-12.85,0-.51,0-.68-.17-.67-.68,.02-2.14,0-4.28,0-6.43Zm7.04,4.96c1.46,0,2.92-.01,4.38,0,.48,0,.65-.16,.64-.64-.02-2.88-.02-5.76,0-8.65,0-.48-.16-.65-.64-.65-2.88,.02-5.76,.01-8.65,0-.48,0-.65,.17-.65,.65,.01,2.88,.01,5.76,0,8.65,0,.48,.17,.65,.65,.64,1.42-.02,2.84,0,4.27,0Z"/>
          <path class="cls-1" d="M179.85,43.77c0,2.12-.01,4.25,.01,6.37,0,.55-.16,.75-.73,.74-4.26-.02-8.53-.02-12.79,0-.54,0-.7-.19-.7-.71,.02-4.26,.02-8.53,0-12.79,0-.52,.15-.71,.7-.71,4.28,.02,8.57,.02,12.85,0,.52,0,.67,.18,.67,.68-.02,2.14,0,4.28,0,6.43Zm-12.06-.03c0,1.44,.02,2.88,0,4.32,0,.51,.16,.68,.67,.68,2.86-.02,5.73-.02,8.59,0,.5,0,.68-.16,.68-.67-.02-2.86-.02-5.73,0-8.59,0-.5-.16-.68-.67-.68-2.86,.02-5.73,.02-8.59,0-.51,0-.69,.16-.68,.67,.03,1.42,0,2.84,0,4.27Z"/>
          <path class="cls-1" d="M137.46,71.96c0-2.12,.01-4.25,0-6.37,0-.55,.15-.75,.73-.75,4.26,.02,8.53,.02,12.79,0,.54,0,.7,.19,.7,.71-.02,4.26-.02,8.53,0,12.79,0,.52-.15,.72-.7,.71-4.28-.02-8.57-.02-12.85,0-.52,0-.67-.18-.67-.68,.02-2.14,0-4.28,0-6.43Zm12.06,.01c0-1.44-.01-2.88,0-4.32,0-.47-.14-.66-.63-.66-2.88,.02-5.77,.01-8.65,0-.47,0-.66,.14-.66,.63,.02,2.88,.01,5.77,0,8.65,0,.47,.14,.66,.63,.66,2.88-.02,5.77-.02,8.65,0,.53,0,.66-.2,.66-.69-.02-1.42,0-2.84,0-4.27Z"/>
          <path class="cls-1" d="M131.4,36.7c0-1.79,.01-3.59,0-5.38,0-.52,.15-.72,.7-.72,3.6,.02,7.21,.02,10.81,0,.52,0,.72,.16,.71,.71-.05,1.66,.19,1.43-1.42,1.44-2.61,.01-5.22,0-7.83,0-.81,0-.82,0-.82,.79,0,2.83,0,5.65,0,8.48,0,.78,0,.8-.78,.79-1.53-.01-1.36,.21-1.36-1.37,0-1.58,0-3.16,0-4.73Z"/>
          <path class="cls-1" d="M185.91,36.76c0,1.79-.01,3.59,0,5.38,0,.5-.15,.7-.67,.68-1.72-.04-1.46,.19-1.47-1.45-.01-2.49,0-4.99,0-7.48,0-1.27,.14-1.14-1.11-1.14-2.73,0-5.46-.01-8.18,0-.57,0-.8-.15-.78-.76,.06-1.56-.22-1.39,1.41-1.39,3.31,0,6.63,0,9.94,0,.86,0,.86,0,.86,.89,0,1.75,0,3.51,0,5.26Z"/>
          <path class="cls-1" d="M131.4,79.03c0-1.81,.01-3.62,0-5.44,0-.49,.14-.7,.67-.69,1.71,.05,1.47-.2,1.48,1.44,.01,2.65,.02,5.3,0,7.95,0,.55,.18,.69,.71,.69,2.84-.02,5.69-.01,8.54,0,.83,0,.84,0,.83,.8-.01,1.49,.21,1.34-1.34,1.34-3.33,0-6.66,0-10,0-.86,0-.87,0-.87-.89,0-1.73,0-3.47,0-5.2Z"/>
          <path class="cls-1" d="M185.91,79.05c0,1.77-.02,3.55,0,5.32,0,.54-.15,.76-.72,.75-3.59-.02-7.17-.02-10.76,0-.55,0-.76-.16-.74-.73,.05-1.62-.19-1.41,1.39-1.41,2.57-.01,5.14,0,7.72,0q.97,0,.97-.99c0-2.77,.01-5.53-.01-8.3,0-.58,.15-.8,.76-.78,1.57,.06,1.38-.21,1.39,1.41,0,1.58,0,3.16,0,4.74Z"/>
          <path class="cls-1" d="M160.6,79.06c-.82,0-1.64-.01-2.45,0-.39,0-.59-.14-.56-.55,0-.08,0-.16,0-.23-.01-1.3-.14-1.4-1.45-1.22-.26,.03-.39,.14-.4,.4,0,.06,0,.12,0,.18-.07,1.52-.19,1.62-1.73,1.42-.29-.04-.42-.16-.42-.44,0-1.75,0-3.51,0-5.26,0-.29,.13-.43,.42-.43,.04,0,.08,0,.12,0,1.54-.08,1.55-.08,1.6,1.43,.01,.43,.18,.57,.6,.58,1.37,.03,1.38,.04,1.4,1.39,0,.45,.16,.62,.62,.61,1.43-.02,1.23,.09,1.25-1.2,0-.79,.02-.81,.83-.8,1.53,0,1.31-.13,1.3,1.31,0,.54,.17,.71,.7,.7,1.51-.01,1.3-.16,1.31,1.36,0,.76,0,.77-.79,.77-.78,0-1.56,0-2.34,0Z"/>
          <path class="cls-1" d="M157.58,37.71q0-1.05,1.11-1.05t1.03,1.18q0,.96-1.2,.96-.95,0-.95-1.09Z"/>
          <path class="cls-1" d="M178.77,79.06c-.16,0-.31-.01-.47,0-.42,.04-.6-.14-.6-.57,.03-1.81-.24-1.55,1.58-1.57,.38,0,.59,.13,.56,.55-.01,.17,0,.35,0,.53q0,1.07-1.08,1.07Z"/>
          <path class="cls-1" d="M162.69,36.67c1.2,0,1.03-.03,1.04,1.16,0,.98,0,.98-1.12,.98q-1.03,0-1.03-1.15,0-.99,1.1-.99Z"/>
          <path class="cls-1" d="M144.54,40.67c.82,0,1.64,.01,2.45,0,.46-.01,.67,.15,.67,.64-.02,1.66-.01,3.31,0,4.97,0,.41-.16,.61-.58,.6-1.67,0-3.35,0-5.02,0-.42,0-.6-.16-.6-.59,0-1.69,0-3.39,0-5.08,0-.41,.2-.54,.58-.54,.84,.01,1.67,0,2.51,0Z"/>
          <path class="cls-1" d="M175.85,43.77c0,.82-.01,1.64,0,2.45,0,.43-.14,.65-.6,.65-1.68-.01-3.35-.01-5.03,0-.43,0-.58-.2-.58-.61,0-1.68,.01-3.35,0-5.03,0-.44,.19-.57,.6-.57,1.68,.01,3.35,.01,5.03,0,.43,0,.59,.18,.58,.6-.02,.84,0,1.68,0,2.51Z"/>
          <path class="cls-1" d="M144.53,75.06c-.84,0-1.67,0-2.51,0-.39,0-.56-.15-.56-.55,0-1.71,0-3.42,0-5.13,0-.37,.17-.52,.53-.52,1.69,0,3.38,0,5.08,0,.42,0,.6,.17,.6,.59,0,1.69,0,3.38,0,5.08,0,.41-.19,.55-.57,.54-.86-.01-1.71,0-2.57,0Z"/>
        </g>
      </g>
    </g>
  </g>
</svg>