<?xml version="1.0" encoding="UTF-8"?>
<svg id="Layer_2" data-name="Layer 2" xmlns="http://www.w3.org/2000/svg" xmlns:xlink="http://www.w3.org/1999/xlink" viewBox="0 0 832.41 49.24">
  <defs>
    <style>
      .cls-1 {
        fill: #fff;
      }

      .cls-2 {
        filter: url(#outer-glow-1);
      }
    </style>
    <filter id="outer-glow-1" filterUnits="userSpaceOnUse">
      <feOffset dx="0" dy="0"/>
      <feGaussianBlur result="blur" stdDeviation="8.15"/>
      <feFlood flood-color="#fff5e6" flood-opacity=".75"/>
      <feComposite in2="blur" operator="in"/>
      <feComposite in="SourceGraphic"/>
    </filter>
  </defs>
  <g id="Layer_1-2" data-name="Layer 1">
    <g class="cls-2">
      <path class="cls-1" d="M20.7,35.72h-7.31v12.58H0V.95H21.65c4.28,0,8,.71,11.16,2.13,3.16,1.42,5.59,3.45,7.3,6.09,1.71,2.64,2.57,5.74,2.57,9.3s-.8,6.42-2.4,8.96c-1.6,2.55-3.89,4.54-6.87,5.99l10.21,14.88h-14.34l-8.59-12.58Zm6.36-22.39c-1.4-1.22-3.47-1.83-6.22-1.83h-7.44v13.87h7.44c2.75,0,4.82-.6,6.22-1.79,1.4-1.19,2.1-2.9,2.1-5.11s-.7-3.92-2.1-5.14Z"/>
      <path class="cls-1" d="M88.07,37.95v10.35H50.06V.95h37.14V11.3h-23.88v7.98h21.04v10.01h-21.04v8.66h24.76Z"/>
      <path class="cls-1" d="M127.24,39.1h-20.02l-3.72,9.2h-13.66L110.73,.95h13.19l20.97,47.35h-13.93l-3.72-9.2Zm-3.92-9.88l-6.09-15.15-6.09,15.15h12.18Z"/>
      <path class="cls-1" d="M148.68,.95h22.39c5.18,0,9.78,.97,13.8,2.91,4.01,1.94,7.12,4.69,9.33,8.25,2.21,3.56,3.31,7.73,3.31,12.51s-1.11,8.95-3.31,12.51c-2.21,3.56-5.32,6.31-9.33,8.25-4.01,1.94-8.61,2.91-13.8,2.91h-22.39V.95Zm21.85,36.66c4.06,0,7.32-1.15,9.77-3.45s3.69-5.48,3.69-9.54-1.23-7.24-3.69-9.54-5.72-3.45-9.77-3.45h-8.46v25.97h8.46Z"/>
      <path class="cls-1" d="M227.89,31.32v16.98h-13.39V31.12L196.43,.95h14.14l11.23,18.8L233.03,.95h12.99l-18.13,30.37Z"/>
      <path class="cls-1" d="M279.16,11.57h-14.54V.95h42.41V11.57h-14.48V48.3h-13.39V11.57Z"/>
      <path class="cls-1" d="M321.74,46.06c-3.99-2.12-7.13-5.05-9.4-8.79-2.28-3.74-3.42-7.96-3.42-12.65s1.14-8.91,3.42-12.65c2.28-3.74,5.41-6.67,9.4-8.79,3.99-2.12,8.49-3.18,13.5-3.18s9.5,1.06,13.49,3.18c3.99,2.12,7.12,5.05,9.4,8.79,2.28,3.74,3.42,7.96,3.42,12.65s-1.14,8.91-3.42,12.65c-2.28,3.74-5.41,6.67-9.4,8.79-3.99,2.12-8.49,3.18-13.49,3.18s-9.5-1.06-13.5-3.18Zm19.99-9.6c1.94-1.13,3.47-2.72,4.6-4.77,1.13-2.05,1.69-4.41,1.69-7.07s-.56-5.02-1.69-7.07c-1.13-2.05-2.66-3.64-4.6-4.77-1.94-1.13-4.1-1.69-6.49-1.69s-4.56,.56-6.49,1.69c-1.94,1.13-3.47,2.72-4.6,4.77-1.13,2.05-1.69,4.41-1.69,7.07s.56,5.02,1.69,7.07c1.13,2.05,2.66,3.64,4.6,4.77,1.94,1.13,4.1,1.69,6.49,1.69s4.55-.56,6.49-1.69Z"/>
      <path class="cls-1" d="M388.27,.95h22.39c5.18,0,9.78,.97,13.8,2.91,4.01,1.94,7.12,4.69,9.33,8.25,2.21,3.56,3.31,7.73,3.31,12.51s-1.11,8.95-3.31,12.51c-2.21,3.56-5.32,6.31-9.33,8.25-4.01,1.94-8.61,2.91-13.8,2.91h-22.39V.95Zm21.85,36.66c4.06,0,7.32-1.15,9.77-3.45s3.69-5.48,3.69-9.54-1.23-7.24-3.69-9.54-5.72-3.45-9.77-3.45h-8.46v25.97h8.46Z"/>
      <path class="cls-1" d="M454.52,46.06c-3.99-2.12-7.13-5.05-9.4-8.79-2.28-3.74-3.42-7.96-3.42-12.65s1.14-8.91,3.42-12.65c2.28-3.74,5.41-6.67,9.4-8.79,3.99-2.12,8.49-3.18,13.5-3.18s9.5,1.06,13.49,3.18c3.99,2.12,7.12,5.05,9.4,8.79,2.28,3.74,3.42,7.96,3.42,12.65s-1.14,8.91-3.42,12.65c-2.28,3.74-5.41,6.67-9.4,8.79-3.99,2.12-8.49,3.18-13.49,3.18s-9.5-1.06-13.5-3.18Zm19.99-9.6c1.94-1.13,3.47-2.72,4.6-4.77,1.13-2.05,1.69-4.41,1.69-7.07s-.56-5.02-1.69-7.07c-1.13-2.05-2.66-3.64-4.6-4.77-1.94-1.13-4.1-1.69-6.49-1.69s-4.56,.56-6.49,1.69c-1.94,1.13-3.47,2.72-4.6,4.77-1.13,2.05-1.69,4.41-1.69,7.07s.56,5.02,1.69,7.07c1.13,2.05,2.66,3.64,4.6,4.77,1.94,1.13,4.1,1.69,6.49,1.69s4.55-.56,6.49-1.69Z"/>
      <path class="cls-1" d="M574.01,.95l-15.36,47.35h-14.34l-9.06-28.82-9.47,28.82h-14.34L496.09,.95h13.8l9.54,30.24,10.01-30.24h12.31l9.54,30.51,9.94-30.51h12.79Z"/>
      <path class="cls-1" d="M623.87,.95V48.3h-11.03l-20.9-25.23v25.23h-13.12V.95h11.03l20.9,25.23V.95h13.12Z"/>
      <path class="cls-1" d="M633.33,.95h13.39V37.68h22.59v10.62h-35.99V.95Z"/>
      <path class="cls-1" d="M684.24,46.06c-3.99-2.12-7.13-5.05-9.4-8.79-2.28-3.74-3.42-7.96-3.42-12.65s1.14-8.91,3.42-12.65c2.28-3.74,5.41-6.67,9.4-8.79,3.99-2.12,8.49-3.18,13.5-3.18s9.5,1.06,13.49,3.18c3.99,2.12,7.12,5.05,9.4,8.79,2.28,3.74,3.42,7.96,3.42,12.65s-1.14,8.91-3.42,12.65c-2.28,3.74-5.41,6.67-9.4,8.79-3.99,2.12-8.49,3.18-13.49,3.18s-9.5-1.06-13.5-3.18Zm19.99-9.6c1.94-1.13,3.47-2.72,4.6-4.77,1.13-2.05,1.69-4.41,1.69-7.07s-.56-5.02-1.69-7.07c-1.13-2.05-2.66-3.64-4.6-4.77-1.94-1.13-4.1-1.69-6.49-1.69s-4.56,.56-6.49,1.69c-1.94,1.13-3.47,2.72-4.6,4.77-1.13,2.05-1.69,4.41-1.69,7.07s.56,5.02,1.69,7.07c1.13,2.05,2.66,3.64,4.6,4.77,1.94,1.13,4.1,1.69,6.49,1.69s4.55-.56,6.49-1.69Z"/>
      <path class="cls-1" d="M762.13,39.1h-20.02l-3.72,9.2h-13.66L745.62,.95h13.19l20.97,47.35h-13.93l-3.72-9.2Zm-3.92-9.88l-6.09-15.15-6.09,15.15h12.18Z"/>
      <path class="cls-1" d="M783.57,.95h22.39c5.18,0,9.78,.97,13.8,2.91,4.01,1.94,7.12,4.69,9.33,8.25,2.21,3.56,3.31,7.73,3.31,12.51s-1.11,8.95-3.31,12.51c-2.21,3.56-5.32,6.31-9.33,8.25-4.01,1.94-8.61,2.91-13.8,2.91h-22.39V.95Zm21.85,36.66c4.06,0,7.32-1.15,9.77-3.45s3.69-5.48,3.69-9.54-1.23-7.24-3.69-9.54-5.72-3.45-9.77-3.45h-8.46v25.97h8.46Z"/>
    </g>
  </g>
</svg>