<?xml version="1.0" encoding="UTF-8"?>
<svg id="Layer_2" data-name="Layer 2" xmlns="http://www.w3.org/2000/svg" xmlns:xlink="http://www.w3.org/1999/xlink" viewBox="0 0 791.68 130.41">
  <defs>
    <style>
      .cls-1 {
        fill: #fff;
      }

      .cls-2 {
        filter: url(#outer-glow-1);
      }
    </style>
    <filter id="outer-glow-1" filterUnits="userSpaceOnUse">
      <feOffset dx="0" dy="0"/>
      <feGaussianBlur result="blur" stdDeviation="8.15"/>
      <feFlood flood-color="#fff5e6" flood-opacity=".75"/>
      <feComposite in2="blur" operator="in"/>
      <feComposite in="SourceGraphic"/>
    </filter>
  </defs>
  <g id="Layer_1-2" data-name="Layer 1">
    <g class="cls-2">
      <path class="cls-1" d="M12.68,46.1c-3.95-2.1-7.05-5.02-9.3-8.76-2.25-3.74-3.38-7.98-3.38-12.72S1.13,15.65,3.38,11.91c2.25-3.74,5.35-6.66,9.3-8.76C16.63,1.05,21.08,0,26.04,0c4.33,0,8.23,.77,11.7,2.3,3.47,1.53,6.36,3.74,8.66,6.63l-8.52,7.71c-3.07-3.7-6.79-5.55-11.16-5.55-2.57,0-4.86,.56-6.87,1.69-2.01,1.13-3.56,2.72-4.67,4.77-1.11,2.05-1.66,4.41-1.66,7.07s.55,5.02,1.66,7.07c1.1,2.05,2.66,3.64,4.67,4.77,2.01,1.13,4.29,1.69,6.87,1.69,4.37,0,8.09-1.85,11.16-5.55l8.52,7.71c-2.3,2.89-5.19,5.1-8.66,6.63-3.47,1.53-7.37,2.3-11.7,2.3-4.96,0-9.41-1.05-13.36-3.15Z"/>
      <path class="cls-1" d="M83.27,39.1h-20.02l-3.72,9.2h-13.66L66.76,.95h13.19l20.97,47.35h-13.93l-3.72-9.2Zm-3.92-9.88l-6.09-15.15-6.09,15.15h12.18Z"/>
      <path class="cls-1" d="M137.52,3.08c3.16,1.42,5.59,3.45,7.3,6.09,1.71,2.64,2.57,5.74,2.57,9.3s-.86,6.65-2.57,9.27c-1.71,2.62-4.15,4.63-7.3,6.05-3.16,1.42-6.88,2.13-11.16,2.13h-8.25v12.38h-13.39V.95h21.65c4.28,0,8,.71,11.16,2.13Zm-5.75,20.5c1.4-1.19,2.1-2.9,2.1-5.11s-.7-3.92-2.1-5.14c-1.4-1.22-3.47-1.83-6.22-1.83h-7.44v13.87h7.44c2.75,0,4.82-.6,6.22-1.79Z"/>
      <path class="cls-1" d="M162.82,11.57h-14.54V.95h42.41V11.57h-14.48V48.3h-13.39V11.57Z"/>
      <path class="cls-1" d="M200.39,43.49c-3.9-3.83-5.85-9.27-5.85-16.3V.95h13.39V26.79c0,7.58,3,11.36,9,11.36s8.93-3.79,8.93-11.36V.95h13.19V27.19c0,7.03-1.95,12.47-5.85,16.3-3.9,3.83-9.37,5.75-16.4,5.75s-12.5-1.92-16.4-5.75Z"/>
      <path class="cls-1" d="M268.81,35.72h-7.31v12.58h-13.39V.95h21.65c4.28,0,8,.71,11.16,2.13,3.16,1.42,5.59,3.45,7.3,6.09,1.71,2.64,2.57,5.74,2.57,9.3s-.8,6.42-2.4,8.96c-1.6,2.55-3.89,4.54-6.87,5.99l10.21,14.88h-14.34l-8.59-12.58Zm6.36-22.39c-1.4-1.22-3.47-1.83-6.22-1.83h-7.44v13.87h7.44c2.75,0,4.82-.6,6.22-1.79,1.4-1.19,2.1-2.9,2.1-5.11s-.7-3.92-2.1-5.14Z"/>
      <path class="cls-1" d="M336.18,37.95v10.35h-38.01V.95h37.14V11.3h-23.88v7.98h21.04v10.01h-21.04v8.66h24.76Z"/>
      <path class="cls-1" d="M373.69,46.06c-3.99-2.12-7.13-5.05-9.4-8.79-2.28-3.74-3.42-7.96-3.42-12.65s1.14-8.91,3.42-12.65c2.28-3.74,5.41-6.67,9.4-8.79,3.99-2.12,8.49-3.18,13.5-3.18s9.5,1.06,13.49,3.18c3.99,2.12,7.12,5.05,9.4,8.79,2.28,3.74,3.42,7.96,3.42,12.65s-1.14,8.91-3.42,12.65c-2.28,3.74-5.41,6.67-9.4,8.79-3.99,2.12-8.49,3.18-13.49,3.18s-9.5-1.06-13.5-3.18Zm19.99-9.6c1.94-1.13,3.47-2.72,4.6-4.77,1.13-2.05,1.69-4.41,1.69-7.07s-.56-5.02-1.69-7.07c-1.13-2.05-2.66-3.64-4.6-4.77-1.94-1.13-4.1-1.69-6.49-1.69s-4.56,.56-6.49,1.69c-1.94,1.13-3.47,2.72-4.6,4.77-1.13,2.05-1.69,4.41-1.69,7.07s.56,5.02,1.69,7.07c1.13,2.05,2.66,3.64,4.6,4.77,1.94,1.13,4.1,1.69,6.49,1.69s4.55-.56,6.49-1.69Z"/>
      <path class="cls-1" d="M441.23,35.72h-7.31v12.58h-13.39V.95h21.65c4.28,0,8,.71,11.16,2.13,3.16,1.42,5.59,3.45,7.3,6.09,1.71,2.64,2.57,5.74,2.57,9.3s-.8,6.42-2.4,8.96c-1.6,2.55-3.89,4.54-6.87,5.99l10.21,14.88h-14.34l-8.59-12.58Zm6.36-22.39c-1.4-1.22-3.47-1.83-6.22-1.83h-7.44v13.87h7.44c2.75,0,4.82-.6,6.22-1.79,1.4-1.19,2.1-2.9,2.1-5.11s-.7-3.92-2.1-5.14Z"/>
      <path class="cls-1" d="M495.71,43.49c-3.9-3.83-5.85-9.27-5.85-16.3V.95h13.39V26.79c0,7.58,3,11.36,9,11.36s8.93-3.79,8.93-11.36V.95h13.19V27.19c0,7.03-1.95,12.47-5.85,16.3-3.9,3.83-9.37,5.75-16.4,5.75s-12.5-1.92-16.4-5.75Z"/>
      <path class="cls-1" d="M576.24,3.08c3.16,1.42,5.59,3.45,7.3,6.09,1.71,2.64,2.57,5.74,2.57,9.3s-.86,6.65-2.57,9.27c-1.71,2.62-4.15,4.63-7.3,6.05-3.16,1.42-6.88,2.13-11.16,2.13h-8.25v12.38h-13.39V.95h21.65c4.28,0,8,.71,11.16,2.13Zm-5.75,20.5c1.4-1.19,2.1-2.9,2.1-5.11s-.7-3.92-2.1-5.14c-1.4-1.22-3.47-1.83-6.22-1.83h-7.44v13.87h7.44c2.75,0,4.82-.6,6.22-1.79Z"/>
      <path class="cls-1" d="M592.61,.95h13.39V37.68h22.59v10.62h-35.99V.95Z"/>
      <path class="cls-1" d="M643.51,46.06c-3.99-2.12-7.13-5.05-9.4-8.79-2.28-3.74-3.42-7.96-3.42-12.65s1.14-8.91,3.42-12.65c2.28-3.74,5.41-6.67,9.4-8.79,3.99-2.12,8.49-3.18,13.5-3.18s9.5,1.06,13.49,3.18c3.99,2.12,7.12,5.05,9.4,8.79,2.28,3.74,3.42,7.96,3.42,12.65s-1.14,8.91-3.42,12.65c-2.28,3.74-5.41,6.67-9.4,8.79-3.99,2.12-8.49,3.18-13.49,3.18s-9.5-1.06-13.5-3.18Zm19.99-9.6c1.94-1.13,3.47-2.72,4.6-4.77,1.13-2.05,1.69-4.41,1.69-7.07s-.56-5.02-1.69-7.07c-1.13-2.05-2.66-3.64-4.6-4.77-1.94-1.13-4.1-1.69-6.49-1.69s-4.56,.56-6.49,1.69c-1.94,1.13-3.47,2.72-4.6,4.77-1.13,2.05-1.69,4.41-1.69,7.07s.56,5.02,1.69,7.07c1.13,2.05,2.66,3.64,4.6,4.77,1.94,1.13,4.1,1.69,6.49,1.69s4.55-.56,6.49-1.69Z"/>
      <path class="cls-1" d="M721.4,39.1h-20.02l-3.72,9.2h-13.66L704.9,.95h13.19l20.97,47.35h-13.93l-3.72-9.2Zm-3.92-9.88l-6.09-15.15-6.09,15.15h12.18Z"/>
      <path class="cls-1" d="M742.85,.95h22.39c5.18,0,9.78,.97,13.8,2.91,4.01,1.94,7.12,4.69,9.33,8.25,2.21,3.56,3.31,7.73,3.31,12.51s-1.11,8.95-3.31,12.51c-2.21,3.56-5.32,6.31-9.33,8.25-4.01,1.94-8.61,2.91-13.8,2.91h-22.39V.95Zm21.85,36.66c4.06,0,7.32-1.15,9.77-3.45s3.69-5.48,3.69-9.54-1.23-7.24-3.69-9.54-5.72-3.45-9.77-3.45h-8.46v25.97h8.46Z"/>
      <path class="cls-1" d="M204.55,112.49v16.98h-13.39v-17.18l-18.06-30.17h14.14l11.23,18.8,11.23-18.8h12.99l-18.13,30.37Z"/>
      <path class="cls-1" d="M234.42,127.24c-3.99-2.12-7.13-5.05-9.4-8.79-2.28-3.74-3.42-7.96-3.42-12.65s1.14-8.91,3.42-12.65c2.28-3.74,5.41-6.67,9.4-8.79,3.99-2.12,8.49-3.18,13.5-3.18s9.5,1.06,13.49,3.18c3.99,2.12,7.12,5.05,9.4,8.79,2.28,3.74,3.42,7.96,3.42,12.65s-1.14,8.91-3.42,12.65c-2.28,3.74-5.41,6.67-9.4,8.79-3.99,2.12-8.49,3.18-13.49,3.18s-9.5-1.06-13.5-3.18Zm19.99-9.6c1.94-1.13,3.47-2.72,4.6-4.77,1.13-2.05,1.69-4.41,1.69-7.07s-.56-5.02-1.69-7.07c-1.13-2.05-2.66-3.64-4.6-4.77-1.94-1.13-4.1-1.69-6.49-1.69s-4.56,.56-6.49,1.69c-1.94,1.13-3.47,2.72-4.6,4.77-1.13,2.05-1.69,4.41-1.69,7.07s.56,5.02,1.69,7.07c1.13,2.05,2.66,3.64,4.6,4.77,1.94,1.13,4.1,1.69,6.49,1.69s4.55-.56,6.49-1.69Z"/>
      <path class="cls-1" d="M286.7,124.67c-3.9-3.83-5.85-9.27-5.85-16.3v-26.25h13.39v25.84c0,7.58,3,11.36,9,11.36s8.93-3.79,8.93-11.36v-25.84h13.19v26.25c0,7.03-1.95,12.47-5.85,16.3-3.9,3.83-9.37,5.75-16.4,5.75s-12.5-1.92-16.4-5.75Z"/>
      <path class="cls-1" d="M355.12,116.89h-7.31v12.58h-13.39v-47.35h21.65c4.28,0,8,.71,11.16,2.13,3.16,1.42,5.59,3.45,7.3,6.09,1.71,2.64,2.57,5.74,2.57,9.3s-.8,6.42-2.4,8.96c-1.6,2.55-3.89,4.54-6.87,5.99l10.21,14.88h-14.34l-8.59-12.58Zm6.36-22.39c-1.4-1.22-3.47-1.83-6.22-1.83h-7.44v13.87h7.44c2.75,0,4.82-.6,6.22-1.79,1.4-1.19,2.1-2.9,2.1-5.11s-.7-3.92-2.1-5.14Z"/>
      <path class="cls-1" d="M404.16,82.12h13.39v47.35h-13.39v-47.35Z"/>
      <path class="cls-1" d="M469.84,129.47l-.14-25.1-12.18,20.43h-5.95l-12.11-19.75v24.42h-12.38v-47.35h11.03l16.64,27.33,16.23-27.33h11.03l.13,47.35h-12.31Z"/>
      <path class="cls-1" d="M523.35,120.27h-20.02l-3.72,9.2h-13.66l20.9-47.35h13.19l20.97,47.35h-13.93l-3.72-9.2Zm-3.92-9.88l-6.09-15.15-6.09,15.15h12.18Z"/>
      <path class="cls-1" d="M575.84,104.78h11.84v19.62c-2.71,1.94-5.82,3.43-9.33,4.46-3.52,1.04-7.03,1.56-10.55,1.56-4.96,0-9.43-1.05-13.39-3.15-3.97-2.1-7.08-5.02-9.33-8.76-2.25-3.74-3.38-7.98-3.38-12.72s1.13-8.97,3.38-12.72c2.25-3.74,5.39-6.66,9.4-8.76,4.01-2.1,8.55-3.15,13.6-3.15,4.42,0,8.39,.74,11.91,2.23,3.52,1.49,6.45,3.63,8.79,6.43l-8.52,7.71c-3.2-3.52-7.04-5.28-11.5-5.28-4.06,0-7.33,1.23-9.81,3.69-2.48,2.46-3.72,5.74-3.72,9.84,0,2.62,.56,4.95,1.69,7,1.13,2.05,2.71,3.65,4.74,4.8,2.03,1.15,4.35,1.72,6.97,1.72s4.98-.52,7.24-1.56v-12.99Z"/>
      <path class="cls-1" d="M634.21,119.12v10.35h-38.01v-47.35h37.14v10.35h-23.88v7.98h21.04v10.01h-21.04v8.66h24.76Z"/>
    </g>
  </g>
</svg>