<?xml version="1.0" encoding="UTF-8"?>
<svg id="Layer_2" data-name="Layer 2" xmlns="http://www.w3.org/2000/svg" xmlns:xlink="http://www.w3.org/1999/xlink" viewBox="0 0 76.6 76.6">
  <defs>
    <style>
      .cls-1 {
        fill: url(#linear-gradient-2);
      }

      .cls-2 {
        fill: url(#linear-gradient-3);
      }

      .cls-3 {
        fill: url(#linear-gradient);
      }

      .cls-4 {
        fill: url(#linear-gradient-4);
      }
    </style>
    <linearGradient id="linear-gradient" x1="12.82" y1="7.89" x2="60.95" y2="65.34" gradientUnits="userSpaceOnUse">
      <stop offset="0" stop-color="#e36113"/>
      <stop offset=".2" stop-color="#ffb200"/>
      <stop offset=".4" stop-color="#e36113"/>
      <stop offset=".6" stop-color="#ffb200"/>
      <stop offset=".8" stop-color="#e36113"/>
      <stop offset="1" stop-color="#ffb200"/>
    </linearGradient>
    <linearGradient id="linear-gradient-2" x1="16.12" y1="5.13" x2="64.25" y2="62.58" xlink:href="#linear-gradient"/>
    <linearGradient id="linear-gradient-3" x1="4.35" y1="14.99" x2="52.47" y2="72.44" xlink:href="#linear-gradient"/>
    <linearGradient id="linear-gradient-4" x1="22.37" y1="-.11" x2="70.5" y2="57.34" xlink:href="#linear-gradient"/>
  </defs>
  <g id="Layer_1-2" data-name="Layer 1">
    <g>
      <path class="cls-3" d="M38.3,76.6C17.18,76.6,0,59.42,0,38.3S17.18,0,38.3,0s38.3,17.18,38.3,38.3-17.18,38.3-38.3,38.3ZM38.3,1.57C18.05,1.57,1.57,18.05,1.57,38.3s16.48,36.73,36.73,36.73,36.73-16.48,36.73-36.73S58.55,1.57,38.3,1.57Z"/>
      <g>
        <circle class="cls-1" cx="36.28" cy="29.2" r="10.93"/>
        <path class="cls-2" d="M35.93,58.3c-4.57,0-9.14,.06-13.71-.01-4.75-.07-7.32-3.98-4.96-8.1,1.23-2.15,3.35-4.21,5.57-5.31,8.62-4.24,17.46-4.13,26.2-.16,2.79,1.27,5.04,3.23,6.09,6.25,1.36,3.89-.85,7.22-4.96,7.31-4.74,.1-9.49,.02-14.23,.02Z"/>
        <path class="cls-4" d="M59.17,36.46h-4.23v-4.13c0-.58-.47-1.05-1.05-1.05s-1.05,.47-1.05,1.05v4.13h-4.23c-.58,0-1.05,.47-1.05,1.05s.47,1.05,1.05,1.05h4.23v4.13c0,.58,.47,1.05,1.05,1.05s1.05-.47,1.05-1.05v-4.13h4.23c.58,0,1.05-.47,1.05-1.05s-.47-1.05-1.05-1.05Z"/>
      </g>
    </g>
  </g>
</svg>