<?xml version="1.0" encoding="UTF-8"?>
<svg id="Layer_2" data-name="Layer 2" xmlns="http://www.w3.org/2000/svg" xmlns:xlink="http://www.w3.org/1999/xlink" viewBox="0 0 80.51 80.51">
  <defs>
    <style>
      .cls-1 {
        clip-path: url(#clippath-1);
      }

      .cls-2 {
        stroke: url(#linear-gradient-2);
        stroke-width: 1.5px;
      }

      .cls-2, .cls-3 {
        stroke-miterlimit: 10;
      }

      .cls-2, .cls-3, .cls-4 {
        fill: none;
      }

      .cls-5 {
        clip-path: url(#clippath);
      }

      .cls-3 {
        stroke: url(#linear-gradient);
      }

      .cls-6 {
        fill: url(#linear-gradient-3);
      }

      .cls-7 {
        fill: url(#linear-gradient-4);
      }
    </style>
    <linearGradient id="linear-gradient" x1=".25" y1="40.26" x2="80.26" y2="40.26" gradientUnits="userSpaceOnUse">
      <stop offset="0" stop-color="#e897c1"/>
      <stop offset=".16" stop-color="#cb82b7"/>
      <stop offset=".41" stop-color="#a467aa"/>
      <stop offset=".65" stop-color="#8853a1"/>
      <stop offset=".85" stop-color="#77479b"/>
      <stop offset="1" stop-color="#71439a"/>
    </linearGradient>
    <linearGradient id="linear-gradient-2" x1="0" x2="80.51" xlink:href="#linear-gradient"/>
    <clipPath id="clippath">
      <path class="cls-4" d="M39.12,42.12c-3.22-.03-5.99-2.68-5.96-6.08,.02-3.28,2.74-6,6.03-5.95,3.27-.05,6.02,2.67,6.02,6.03,0,3.33-2.75,6-6.02,6h-.06m-1.74-19.68c-1.67,.18-3.28,.57-4.83,1.21-1.95,.8-3.7,1.91-5.25,3.34-1.11,1.02-2.07,2.16-2.88,3.43-.98,1.54-1.71,3.18-2.18,4.94-.43,1.6-.62,3.24-.58,4.9,.02,.93,.11,1.86,.27,2.78,.33,1.81,.93,3.53,1.81,5.16,.79,1.46,1.76,2.77,2.91,3.96,.13,.13,.15,.13,.2-.05,.41-1.29,1.01-2.49,1.79-3.6,.63-.9,1.37-1.69,2.21-2.4,.96-.82,2.03-1.48,3.19-1.99,.08-.03,.14-.04,.21,0,.52,.32,1.07,.59,1.65,.8,.94,.35,1.91,.54,2.91,.58,.44,.02,.87,0,1.31-.04,.67-.06,1.33-.2,1.97-.41,.72-.23,1.39-.54,2.04-.94,.07-.04,.12-.05,.2-.02,1.22,.53,2.33,1.23,3.33,2.11,.11,.09,.18,.1,.3,.02,1.49-.98,3.12-1.42,4.9-1.32,.94,.05,1.84,.27,2.71,.63,.2,.09,.21,.08,.27-.13,.59-1.8,.9-3.65,.88-5.67,.02-.63-.04-1.39-.14-2.14-.29-2.21-.97-4.29-2.05-6.23-1.06-1.91-2.43-3.55-4.1-4.95-1.34-1.13-2.83-2.03-4.45-2.71-1.92-.81-3.92-1.25-5.99-1.35-.27-.01-.54-.02-.8-.02-.6,0-1.2,.03-1.81,.09"/>
    </clipPath>
    <linearGradient id="linear-gradient-3" x1="-1874.21" y1="1705.14" x2="-1873.21" y2="1705.14" gradientTransform="translate(65750.16 59836.74) scale(35.07 -35.07)" xlink:href="#linear-gradient"/>
    <clipPath id="clippath-1">
      <path class="cls-4" d="M49.19,53.52c-.3,0-.52-.18-.58-.47-.06-.31,.14-.6,.44-.67,.09-.02,.18-.03,.27-.03h2.26c.21,0,.22,0,.22-.21,0-.78,0-1.57,0-2.35,0-.35,.2-.59,.51-.61,.34-.02,.59,.19,.64,.54,0,.06,0,.13,0,.2,0,.75,0,1.5,0,2.25,0,.19,.01,.2,.2,.2h2.32c.19,0,.36,.04,.5,.19,.16,.16,.21,.41,.13,.61-.1,.23-.26,.36-.52,.36-.79,0-1.59,0-2.39,0-.24,0-.25,0-.25,.25,0,.76,0,1.53,0,2.29,0,.34-.15,.57-.43,.65-.34,.1-.72-.17-.72-.52,0-.41,0-.83,0-1.24s0-.81,0-1.22c0-.18-.02-.2-.2-.2h-.91c-.5,0-1.01,0-1.51,0m-3.29-.58c-.03,3.55,2.89,6.49,6.48,6.49,3.46,0,6.48-2.76,6.48-6.47,0-3.6-2.84-6.49-6.48-6.49h-.01c-3.71,0-6.49,3.02-6.47,6.47"/>
    </clipPath>
    <linearGradient id="linear-gradient-4" x1="-1795.35" y1="1688.18" x2="-1794.35" y2="1688.18" gradientTransform="translate(23311.4 21929.72) scale(12.96 -12.96)" xlink:href="#linear-gradient"/>
  </defs>
  <g id="Layer_1-2" data-name="Layer 1">
    <g>
      <path class="cls-3" d="M79.76,40.26c0,21.82-17.69,39.51-39.51,39.51S.75,62.07,.75,40.26,18.44,.75,40.26,.75s39.51,17.69,39.51,39.51"/>
      <path class="cls-2" d="M79.76,40.26h0c0,21.82-17.69,39.51-39.51,39.51C18.44,79.76,.75,62.07,.75,40.26,.75,18.44,18.44,.75,40.26,.75s39.51,17.69,39.51,39.51h0C79.76,18.44,62.07,.75,40.26,.75S.75,18.44,.75,40.26c0,21.82,17.69,39.51,39.51,39.51,21.82,0,39.51-17.69,39.51-39.51h0Z"/>
      <g class="cls-5">
        <rect class="cls-6" x="21.61" y="22.35" width="35.12" height="29.95"/>
      </g>
      <g class="cls-1">
        <rect class="cls-7" x="45.88" y="46.47" width="12.99" height="12.96"/>
      </g>
    </g>
  </g>
</svg>