<?xml version="1.0" encoding="UTF-8"?>
<svg id="Layer_2" data-name="Layer 2" xmlns="http://www.w3.org/2000/svg" xmlns:xlink="http://www.w3.org/1999/xlink" viewBox="0 0 654.23 49.24">
  <defs>
    <style>
      .cls-1 {
        fill: #fff;
      }

      .cls-2 {
        filter: url(#outer-glow-1);
      }
    </style>
    <filter id="outer-glow-1" filterUnits="userSpaceOnUse">
      <feOffset dx="0" dy="0"/>
      <feGaussianBlur result="blur" stdDeviation="8.15"/>
      <feFlood flood-color="#fff5e6" flood-opacity=".75"/>
      <feComposite in2="blur" operator="in"/>
      <feComposite in="SourceGraphic"/>
    </filter>
  </defs>
  <g id="Layer_1-2" data-name="Layer 1">
    <g class="cls-2">
      <path class="cls-1" d="M8.79,47.82c-3.61-.95-6.54-2.21-8.79-3.79l4.4-9.88c2.12,1.4,4.58,2.53,7.37,3.38,2.8,.86,5.55,1.29,8.25,1.29,5.14,0,7.71-1.29,7.71-3.86,0-1.35-.73-2.36-2.2-3.01-1.47-.65-3.82-1.34-7.07-2.06-3.56-.77-6.54-1.59-8.93-2.47-2.39-.88-4.44-2.29-6.16-4.23-1.71-1.94-2.57-4.55-2.57-7.85,0-2.89,.79-5.49,2.37-7.81,1.58-2.32,3.93-4.16,7.07-5.51C13.38,.68,17.23,0,21.78,0c3.11,0,6.18,.35,9.2,1.05,3.02,.7,5.68,1.73,7.98,3.08l-4.13,9.94c-4.51-2.44-8.88-3.65-13.12-3.65-2.66,0-4.6,.4-5.82,1.18-1.22,.79-1.83,1.82-1.83,3.08s.72,2.21,2.16,2.84c1.44,.63,3.77,1.29,6.97,1.96,3.61,.77,6.59,1.59,8.96,2.47,2.37,.88,4.42,2.28,6.16,4.19,1.74,1.92,2.6,4.52,2.6,7.81,0,2.84-.79,5.41-2.37,7.71-1.58,2.3-3.95,4.14-7.1,5.51-3.16,1.38-6.99,2.06-11.5,2.06-3.83,0-7.55-.47-11.16-1.42Z"/>
      <path class="cls-1" d="M121.35,.95l-15.36,47.35h-14.34l-9.06-28.82-9.47,28.82h-14.34L43.42,.95h13.8l9.54,30.24L76.77,.95h12.31l9.54,30.51L108.56,.95h12.79Z"/>
      <path class="cls-1" d="M156.25,39.1h-20.02l-3.72,9.2h-13.66L139.75,.95h13.19l20.97,47.35h-13.93l-3.72-9.2Zm-3.92-9.88l-6.09-15.15-6.09,15.15h12.18Z"/>
      <path class="cls-1" d="M210.5,3.08c3.16,1.42,5.59,3.45,7.3,6.09,1.71,2.64,2.57,5.74,2.57,9.3s-.86,6.65-2.57,9.27c-1.71,2.62-4.15,4.63-7.3,6.05-3.16,1.42-6.88,2.13-11.16,2.13h-8.25v12.38h-13.39V.95h21.65c4.28,0,8,.71,11.16,2.13Zm-5.75,20.5c1.4-1.19,2.1-2.9,2.1-5.11s-.7-3.92-2.1-5.14c-1.4-1.22-3.47-1.83-6.22-1.83h-7.44v13.87h7.44c2.75,0,4.82-.6,6.22-1.79Z"/>
      <path class="cls-1" d="M272.6,31.32v16.98h-13.39V31.12L241.14,.95h14.14l11.23,18.8L277.74,.95h12.99l-18.13,30.37Z"/>
      <path class="cls-1" d="M302.46,46.06c-3.99-2.12-7.13-5.05-9.4-8.79-2.28-3.74-3.42-7.96-3.42-12.65s1.14-8.91,3.42-12.65c2.28-3.74,5.41-6.67,9.4-8.79,3.99-2.12,8.49-3.18,13.5-3.18s9.5,1.06,13.49,3.18c3.99,2.12,7.12,5.05,9.4,8.79,2.28,3.74,3.42,7.96,3.42,12.65s-1.14,8.91-3.42,12.65c-2.28,3.74-5.41,6.67-9.4,8.79-3.99,2.12-8.49,3.18-13.49,3.18s-9.5-1.06-13.5-3.18Zm19.99-9.6c1.94-1.13,3.47-2.72,4.6-4.77,1.13-2.05,1.69-4.41,1.69-7.07s-.56-5.02-1.69-7.07c-1.13-2.05-2.66-3.64-4.6-4.77-1.94-1.13-4.1-1.69-6.49-1.69s-4.56,.56-6.49,1.69c-1.94,1.13-3.47,2.72-4.6,4.77-1.13,2.05-1.69,4.41-1.69,7.07s.56,5.02,1.69,7.07c1.13,2.05,2.66,3.64,4.6,4.77,1.94,1.13,4.1,1.69,6.49,1.69s4.55-.56,6.49-1.69Z"/>
      <path class="cls-1" d="M354.75,43.49c-3.9-3.83-5.85-9.27-5.85-16.3V.95h13.39V26.79c0,7.58,3,11.36,9,11.36s8.93-3.79,8.93-11.36V.95h13.19V27.19c0,7.03-1.95,12.47-5.85,16.3-3.9,3.83-9.37,5.75-16.4,5.75s-12.5-1.92-16.4-5.75Z"/>
      <path class="cls-1" d="M423.17,35.72h-7.31v12.58h-13.39V.95h21.65c4.28,0,8,.71,11.16,2.13,3.16,1.42,5.59,3.45,7.3,6.09,1.71,2.64,2.57,5.74,2.57,9.3s-.8,6.42-2.4,8.96c-1.6,2.55-3.89,4.54-6.87,5.99l10.21,14.88h-14.34l-8.59-12.58Zm6.36-22.39c-1.4-1.22-3.47-1.83-6.22-1.83h-7.44v13.87h7.44c2.75,0,4.82-.6,6.22-1.79,1.4-1.19,2.1-2.9,2.1-5.11s-.7-3.92-2.1-5.14Z"/>
      <path class="cls-1" d="M485.6,11.3v10.42h20.9v10.35h-20.9v16.23h-13.39V.95h37.14V11.3h-23.74Z"/>
      <path class="cls-1" d="M545.53,39.1h-20.02l-3.72,9.2h-13.66L529.03,.95h13.19l20.97,47.35h-13.93l-3.72-9.2Zm-3.92-9.88l-6.09-15.15-6.09,15.15h12.18Z"/>
      <path class="cls-1" d="M576.55,46.1c-3.95-2.1-7.05-5.02-9.3-8.76-2.25-3.74-3.38-7.98-3.38-12.72s1.13-8.97,3.38-12.72c2.25-3.74,5.35-6.66,9.3-8.76,3.95-2.1,8.4-3.15,13.36-3.15,4.33,0,8.23,.77,11.7,2.3,3.47,1.53,6.36,3.74,8.66,6.63l-8.52,7.71c-3.07-3.7-6.79-5.55-11.16-5.55-2.57,0-4.86,.56-6.87,1.69-2.01,1.13-3.56,2.72-4.67,4.77-1.11,2.05-1.66,4.41-1.66,7.07s.55,5.02,1.66,7.07c1.1,2.05,2.66,3.64,4.67,4.77,2.01,1.13,4.29,1.69,6.87,1.69,4.37,0,8.09-1.85,11.16-5.55l8.52,7.71c-2.3,2.89-5.19,5.1-8.66,6.63-3.47,1.53-7.37,2.3-11.7,2.3-4.96,0-9.41-1.05-13.36-3.15Z"/>
      <path class="cls-1" d="M654.23,37.95v10.35h-38.01V.95h37.14V11.3h-23.88v7.98h21.04v10.01h-21.04v8.66h24.76Z"/>
    </g>
  </g>
</svg>